<?xml version="1.0" encoding="UTF-8"?>
<svg id="_Слой_2" data-name="Слой 2" xmlns="http://www.w3.org/2000/svg" viewBox="0 0 1051.39 102.86">
  <defs>
    <style>
      .cls-1 {
        fill: #ff4f00;
      }

      .cls-2 {
        fill: #fff;
      }
    </style>
  </defs>
  <g id="logo">
    <g>
      <polygon class="cls-2" points="330.78 .08 362.37 .08 362.37 102.75 331.86 102.75 331.86 43.07 269.62 102.75 210.47 42.1 210.47 102.75 179.96 102.75 179.96 .08 207.14 .08 269.14 59.21 330.78 .08"/>
      <polygon class="cls-2" points="0 28.02 0 .08 169.13 .08 169.13 28.02 100.14 28.02 100.14 102.75 69.63 102.75 69.63 28.02 0 28.02"/>
      <path class="cls-2" d="M373.27,102.75v-28.44l116.88.79c3.04,0,5.35-.32,6.91-.96,1.57-.64,3.09-1.52,3.09-4.49,0-.88-.07-1.59-.22-2.13-.15-.54-.51-1.1-1.1-1.69-.59-.59-1.59-1.03-3.02-1.32-1.42-.29-3.31-.44-5.66-.44h-75.61c-14.12,0-24.54-2.87-31.26-8.61-6.72-5.73-10.08-13.51-10.08-23.32s3.36-17.36,10.08-23.24C389.99,3.01,400.41.08,414.53.08h111.81v27.95h-111.22c-2.35,0-4.24.15-5.66.44-1.42.3-2.43.76-3.02,1.4-.59.63-.96,1.2-1.1,1.69-.15.49-.22,1.18-.22,2.06s.07,1.59.22,2.13c.15.54.51,1.1,1.1,1.69.59.59,1.59,1.03,3.02,1.33,1.42.29,3.31.44,5.66.44h75.76c14.13,0,24.55,2.87,31.26,8.6,6.72,5.74,10.08,13.51,10.08,23.32s-3.36,17.33-10.08,23.17c-6.72,5.84-17.14,8.46-31.26,8.45h-117.61Z"/>
      <g>
        <g>
          <polygon class="cls-2" points="632.18 21.31 627.09 21.31 627.09 4.35 605.8 4.35 605.8 .03 653.39 .03 653.39 4.28 632.18 4.28 632.18 21.31"/>
          <polygon class="cls-2" points="697.59 21.31 656.81 21.31 656.81 .03 697.59 .03 697.59 4.28 661.12 4.28 661.12 8.58 697.59 8.58 697.59 12.82 661.12 12.82 661.12 17.06 697.59 17.06 697.59 21.31"/>
          <path class="cls-2" d="M741.74,21.31h-35.76c-3.34,0-5.01-1.72-5.01-5.17V5.11c0-3.35,1.67-5.03,5.01-5.03h35.76s0,4.22,0,4.22h-34.82c-1.13,0-1.68.54-1.68,1.63v9.43c0,1.15.54,1.73,1.61,1.73h34.89s0,4.22,0,4.22Z"/>
          <polygon class="cls-2" points="786.01 21.31 781.78 21.31 781.78 12.81 749.44 12.81 749.44 21.31 745.24 21.31 745.24 .08 749.44 .08 749.44 8.56 781.78 8.57 781.78 .08 786.01 .08 786.01 21.31"/>
          <polygon class="cls-2" points="793.78 4.94 793.78 21.31 789.53 21.31 789.48 .03 793.75 .03 826.02 16.28 826 .08 830.28 .08 830.28 21.26 825.98 21.26 793.78 4.94"/>
          <path class="cls-2" d="M838.83,21.31c-3.4,0-5.1-1.71-5.1-5.12V5.18c0-3.4,1.68-5.1,5.04-5.1h30.57c3.46,0,5.19,1.74,5.19,5.22v11c0,3.31-1.67,4.96-5.01,4.96l-30.69.05ZM870.27,15.38V6.11c0-1.19-.57-1.78-1.7-1.78h-28.84c-1.13,0-1.7.55-1.7,1.66v9.34c0,1.15.56,1.73,1.7,1.73h28.88c1.11,0,1.66-.56,1.66-1.68"/>
          <polygon class="cls-2" points="918.67 21.31 877.87 21.31 877.87 .07 882.13 .07 882.13 17.06 918.67 17.06 918.67 21.31"/>
          <path class="cls-2" d="M927.22,21.31c-3.4,0-5.1-1.71-5.1-5.12V5.18c0-3.4,1.68-5.1,5.05-5.1h30.57c3.46,0,5.18,1.74,5.18,5.22v11c0,3.31-1.67,4.96-5.01,4.96l-30.69.05ZM958.66,15.38V6.11c0-1.19-.57-1.78-1.7-1.78h-28.84c-1.13,0-1.7.55-1.7,1.66v9.34c0,1.15.56,1.73,1.7,1.73h28.87c1.11,0,1.66-.56,1.66-1.68"/>
          <path class="cls-2" d="M985.85,12.8v-4.2s21.24,0,21.24,0v7.5c0,3.47-1.71,5.22-5.12,5.22h-30.57c-3.42,0-5.13-1.74-5.12-5.22l.05-10.91c0-3.4,1.68-5.1,5.01-5.1h35.74s0,4.25,0,4.25h-34.86c-1.1,0-1.65.61-1.65,1.83v9.17c0,1.16.55,1.73,1.65,1.73h28.94c1.14,0,1.69-.57,1.68-1.71v-2.56s-17.01,0-17.01,0Z"/>
          <path class="cls-2" d="M1046.04,21.36l-35.5-.02v-4.3s34.92,0,34.92,0c1.06,0,1.6-.55,1.61-1.67v-2.56s-31.41,0-31.41,0c-3.42,0-5.13-1.73-5.13-5.19V.03s4.27,0,4.27,0v6.9c0,1.11.58,1.67,1.75,1.67h30.52s0-8.6,0-8.6h4.26s0,16.11,0,16.11c0,3.51-1.76,5.25-5.3,5.25"/>
        </g>
        <g>
          <polygon class="cls-2" points="633.67 55.64 609.9 46.67 609.9 62.06 605.81 62.06 605.81 41.9 609.91 41.9 633.6 50.78 656.63 41.9 660.73 41.9 660.73 62.06 656.65 62.06 656.68 46.69 633.67 55.64"/>
          <path class="cls-2" d="M668.87,62.06c-3.23,0-4.84-1.62-4.84-4.86v-10.46c0-3.22,1.6-4.84,4.79-4.84h29.03c3.28,0,4.92,1.65,4.92,4.95v10.44c0,3.14-1.59,4.72-4.76,4.72l-29.14.04ZM698.72,56.43v-8.8c0-1.13-.54-1.69-1.61-1.69h-27.39c-1.07,0-1.61.52-1.61,1.58v8.87c0,1.09.54,1.64,1.61,1.64h27.42c1.05,0,1.58-.53,1.58-1.59"/>
          <polygon class="cls-2" points="731.01 62.06 726.17 62.06 726.17 45.95 705.96 45.95 705.96 41.86 751.14 41.86 751.14 45.89 731.01 45.89 731.01 62.06"/>
          <path class="cls-2" d="M759.25,62.06c-3.23,0-4.84-1.62-4.84-4.86v-10.46c0-3.22,1.6-4.84,4.79-4.84h29.03c3.28,0,4.92,1.65,4.92,4.95v10.44c0,3.14-1.58,4.72-4.76,4.72l-29.14.04ZM789.1,56.43v-8.8c0-1.13-.54-1.69-1.61-1.69h-27.38c-1.08,0-1.61.52-1.61,1.58v8.87c0,1.09.53,1.64,1.61,1.64h27.42c1.05,0,1.58-.53,1.58-1.59"/>
          <path class="cls-2" d="M835.13,62.06h-4.91l-4.88-6.47h-24.92v6.47h-4.08l.05-20.17h33.9c3.2,0,4.79,1.59,4.79,4.76v4.14c0,3.2-1.63,4.81-4.89,4.81l4.94,6.47ZM829.29,45.92h-28.87v5.66h29.03c1.06,0,1.6-.56,1.61-1.7v-2.33c.01-1.08-.58-1.63-1.77-1.63"/>
          <path class="cls-2" d="M877.07,57.11c0,3.3-1.65,4.95-4.94,4.95h-33.8l.05-4h33.05c1.06,0,1.61-.49,1.63-1.48v-.99c.02-1.06-.53-1.6-1.66-1.6h-28.18c-3.25,0-4.88-1.51-4.88-4.53v-2.68c0-3.27,1.6-4.9,4.79-4.9l33.95-.03v4.03h-33.09c-1.06,0-1.6.54-1.6,1.62v.81c0,1.09.53,1.64,1.57,1.64h28.19c3.29,0,4.94,1.6,4.94,4.78v2.37Z"/>
          <path class="cls-2" d="M884.41,55.64v6.42h-4.08v-20.17h33.78c3.31,0,4.96,1.6,4.96,4.79v3.97c0,3.32-1.64,4.99-4.91,4.99h-29.75ZM913.41,45.92h-29v5.68l29.06-.05c.98,0,1.47-.53,1.48-1.6v-2.47c.01-1.05-.5-1.57-1.55-1.57"/>
          <path class="cls-2" d="M927.13,62.06c-3.23,0-4.84-1.62-4.84-4.86v-10.46c0-3.22,1.6-4.84,4.79-4.84h29.03c3.28,0,4.92,1.65,4.92,4.95v10.44c0,3.14-1.59,4.72-4.76,4.72l-29.14.04ZM956.98,56.43v-8.8c0-1.13-.54-1.69-1.61-1.69h-27.38c-1.08,0-1.61.52-1.61,1.58v8.87c0,1.09.53,1.64,1.61,1.64h27.42c1.05,0,1.58-.53,1.58-1.59"/>
          <path class="cls-2" d="M1003.02,62.06h-4.91l-4.88-6.47h-24.92v6.47h-4.09l.05-20.17h33.9c3.19,0,4.79,1.59,4.79,4.76v4.14c0,3.2-1.63,4.81-4.89,4.81l4.94,6.47ZM997.17,45.92h-28.87v5.66h29.03c1.06,0,1.6-.56,1.61-1.7v-2.33c.01-1.08-.58-1.63-1.77-1.63"/>
          <polygon class="cls-2" points="1031.25 62.06 1026.41 62.06 1026.41 45.95 1006.21 45.95 1006.21 41.86 1051.39 41.86 1051.39 45.89 1031.25 45.89 1031.25 62.06"/>
        </g>
        <g>
          <path class="cls-2" d="M644.55,97.83c0,3.3-1.65,4.95-4.94,4.95h-33.8l.05-4h33.05c1.06,0,1.61-.49,1.63-1.48v-.99c.02-1.06-.53-1.6-1.66-1.6h-28.18c-3.25,0-4.88-1.51-4.88-4.53v-2.68c0-3.27,1.6-4.9,4.79-4.9l33.95-.03v4.03h-33.09c-1.06,0-1.6.54-1.6,1.62v.81c0,1.09.52,1.64,1.56,1.64h28.19c3.29,0,4.94,1.59,4.94,4.78v2.37Z"/>
          <path class="cls-2" d="M652.65,102.78c-3.22,0-4.84-1.62-4.84-4.86v-10.46c0-3.22,1.6-4.84,4.8-4.84h29.03c3.28,0,4.92,1.65,4.92,4.95v10.44c0,3.14-1.58,4.72-4.76,4.72l-29.15.04ZM682.5,97.16v-8.81c0-1.13-.54-1.69-1.61-1.69h-27.38c-1.08,0-1.61.52-1.61,1.58v8.87c0,1.09.53,1.64,1.61,1.64h27.42c1.05,0,1.58-.53,1.58-1.59"/>
          <polygon class="cls-2" points="728.46 102.78 689.72 102.78 689.72 82.61 693.76 82.61 693.76 98.75 728.46 98.75 728.46 102.78"/>
          <path class="cls-2" d="M766.49,97.09v-14.47h3.99v15.21c0,3.31-1.63,4.95-4.86,4.95h-29.04c-3.23,0-4.84-1.65-4.84-4.95v-15.21h4.08v14.45c0,1.13.53,1.69,1.58,1.69h27.51c1.05,0,1.58-.55,1.58-1.66"/>
          <polygon class="cls-2" points="798.79 102.78 793.96 102.78 793.96 86.68 773.75 86.68 773.75 82.58 818.93 82.58 818.93 86.62 798.79 86.62 798.79 102.78"/>
          <rect class="cls-2" x="823" y="82.58" width="4.11" height="20.14"/>
          <path class="cls-2" d="M835.23,102.78c-3.23,0-4.84-1.62-4.84-4.86v-10.46c0-3.22,1.6-4.84,4.79-4.84h29.03c3.28,0,4.92,1.65,4.92,4.95v10.44c0,3.14-1.59,4.72-4.76,4.72l-29.14.04ZM865.08,97.16v-8.81c0-1.13-.54-1.69-1.61-1.69h-27.39c-1.08,0-1.61.52-1.61,1.58v8.87c0,1.09.53,1.64,1.61,1.64h27.42c1.05,0,1.58-.53,1.58-1.59"/>
          <polygon class="cls-2" points="876.41 87.24 876.41 102.78 872.38 102.78 872.33 82.58 876.38 82.58 907.02 98.01 907 82.63 911.07 82.63 911.07 102.74 906.98 102.74 876.41 87.24"/>
          <path class="cls-2" d="M953.09,97.83c0,3.3-1.65,4.95-4.94,4.95h-33.8l.05-4h33.05c1.06,0,1.61-.49,1.63-1.48v-.99c.01-1.06-.53-1.6-1.66-1.6h-28.18c-3.25,0-4.88-1.51-4.88-4.53v-2.68c0-3.27,1.6-4.9,4.79-4.9l33.95-.03v4.03h-33.09c-1.07,0-1.6.54-1.6,1.62v.81c0,1.09.52,1.64,1.56,1.64h28.19c3.29,0,4.94,1.59,4.94,4.78v2.37Z"/>
        </g>
      </g>
      <rect class="cls-1" x="560.18" y=".08" width="16.34" height="102.78"/>
    </g>
  </g>
</svg>